<svg xmlns="http://www.w3.org/2000/svg" width="24" height="24" viewBox="0 0 24 24"><path stroke="#ACB4C2" stroke-miterlimit="10" d="M20.5 21.5c0 1.104-.895 2-2 2h-13c-1.104 0-2-.896-2-2v-19c0-1.104.896-2 2-2h13c1.105 0 2 .896 2 2v19zM5.5 3.5h13v16h-13z" fill="none"/><path fill="#ACB4C2" d="M12 1.5c-.277 0-.501.224-.501.5s.224.5.501.5c.275 0 .5-.224.5-.5s-.225-.5-.5-.5z"/><path stroke="#ACB4C2" stroke-miterlimit="10" d="M12.5 21.5c0 .276-.225.5-.5.5-.277 0-.501-.224-.501-.5s.224-.5.501-.5c.275 0 .5.224.5.5z" fill="none"/></svg>